<svg aria-hidden="true" style="position: absolute; width: 0; height: 0; overflow: hidden;" version="1.1" xmlns="http://www.w3.org/2000/svg" xmlns:xlink="http://www.w3.org/1999/xlink">
<defs>
<symbol id="icon-astronaut" viewBox="0 0 16 16">
<path fill="#4d5ae5" style="fill: var(--color1, #4d5ae5)" d="M15.987 2.262c-0.032-0.095-0.114-0.166-0.214-0.181l-0.001-0-0.956-0.139-0.428-0.866c-0.089-0.182-0.388-0.182-0.478 0l-0.428 0.865-0.955 0.139c-0.13 0.019-0.228 0.13-0.228 0.264 0 0.075 0.031 0.142 0.080 0.191l0.691 0.674-0.163 0.952c-0.017 0.1 0.024 0.201 0.106 0.261s0.191 0.068 0.281 0.020l0.854-0.449 0.854 0.449c0.036 0.019 0.078 0.030 0.124 0.030 0.147 0 0.267-0.12 0.267-0.267 0-0.016-0.001-0.031-0.004-0.046l0 0.002-0.163-0.952 0.691-0.674c0.050-0.049 0.080-0.116 0.080-0.191 0-0.029-0.005-0.058-0.014-0.084l0.001 0.002zM14.755 2.925c-0.063 0.061-0.091 0.15-0.076 0.236l0.095 0.557-0.5-0.263c-0.036-0.019-0.079-0.031-0.124-0.031s-0.088 0.011-0.126 0.031l0.001-0.001-0.5 0.263 0.095-0.557c0.002-0.014 0.004-0.029 0.004-0.045 0-0.075-0.031-0.142-0.080-0.191l-0.405-0.395 0.559-0.081c0.087-0.013 0.162-0.067 0.201-0.146l0.25-0.506 0.251 0.506c0.039 0.079 0.114 0.134 0.201 0.146l0.559 0.081-0.405 0.395zM13.067 10.261h-0.534v0.534h0.534v-0.534zM13.067 11.328h-0.534v0.534h0.534v-0.534z"></path>
<path fill="#4d5ae5" style="fill: var(--color1, #4d5ae5)" d="M13.6 10.794h-0.533v0.533h0.533v-0.533zM12.534 10.794h-0.534v0.533h0.534v-0.533zM11.2 13.194h-0.533v0.533h0.533v-0.533zM11.2 14.261h-0.533v0.533h0.533v-0.533zM11.733 13.728h-0.534v0.534h0.534v-0.534z"></path>
<path fill="#4d5ae5" style="fill: var(--color1, #4d5ae5)" d="M10.667 13.728h-0.534v0.534h0.534v-0.534zM8 12.128h-0.533v0.534h0.533v-0.534zM8 13.194h-0.533v0.533h0.533v-0.533zM8.533 12.661h-0.533v0.533h0.533v-0.533zM7.467 12.661h-0.534v0.533h0.534v-0.533zM2.933 3.061h-0.533v0.533h0.533v-0.533zM2.933 4.128h-0.533v0.534h0.533v-0.533zM3.466 3.594h-0.533v0.533h0.533v-0.534zM2.4 3.594h-0.534v0.533h0.534v-0.534z"></path>
<path fill="#2e2f42" style="fill: var(--color2, #2e2f42)" d="M12.357 7.080c-0.14-0.188-0.349-0.318-0.59-0.352l-0.005-0.001c-0.038-0.006-0.082-0.009-0.127-0.009-0.205 0-0.395 0.070-0.545 0.187l0.002-0.002-0.626 0.48-0.949 0.709-0.679-0.271c1.21-0.543 2.057-1.754 2.057-3.16 0-1.912-1.561-3.466-3.481-3.466s-3.481 1.555-3.481 3.466c0 0.693 0.207 1.337 0.56 1.879l-1.385-0.012c-0.004 0-0.007 0.002-0.012 0.003-0.026 0.001-0.052 0.006-0.078 0.015-0.006 0.003-0.013 0.004-0.019 0.007-0.003 0.001-0.006 0.002-0.010 0.003l-1.617 0.798-0.947 0.455c-0.012 0.005-0.022 0.011-0.032 0.018l0.001-0c-0.241 0.162-0.397 0.433-0.397 0.741 0 0.148 0.036 0.288 0.1 0.411l-0.002-0.005c0.11 0.214 0.297 0.373 0.528 0.445 0.080 0.026 0.173 0.042 0.269 0.042 0.154 0 0.299-0.039 0.425-0.108l-0.005 0.002 0.694-0.369 1.132-0.585 0.679-0.004-2.721 2.707c0 0.001-0 0.001-0.001 0.001l-0.669 0.666c-0.151 0.15-0.245 0.357-0.245 0.586 0 0.001 0 0.002 0 0.003v-0c0 0.223 0.087 0.432 0.245 0.589 0.162 0.162 0.376 0.242 0.59 0.242s0.427-0.081 0.59-0.242l0.657-0.654 0.87-0.65 0.45 0.448-1.551 1.544c-0.151 0.15-0.245 0.357-0.245 0.587 0 0.001 0 0.002 0 0.002v-0c0 0.223 0.087 0.432 0.245 0.589 0.163 0.162 0.376 0.242 0.59 0.242s0.428-0.081 0.59-0.242l1.741-1.733c0-0.001 0-0.001 0-0.001l0.505-0.5-0.002-0.002c0.003-0.003 0.008-0.004 0.011-0.008l2.583-2.829 1.736 0.247c0.010 0.001 0.022 0.002 0.034 0.002 0.035 0 0.069-0.007 0.099-0.019l-0.002 0.001c0.009-0.003 0.017-0.008 0.025-0.012s0.020-0.008 0.028-0.014l1.607-1.067c0.006-0.004 0.009-0.010 0.015-0.015s0.014-0.007 0.020-0.012l0.636-0.596c0.174-0.163 0.282-0.394 0.282-0.65 0-0.2-0.066-0.385-0.178-0.534l0.002 0.002zM1.065 8.885c-0.087 0.046-0.185 0.056-0.279 0.026-0.147-0.046-0.252-0.182-0.252-0.342 0-0.118 0.057-0.223 0.145-0.288l0.001-0.001 0.657-0.316 0.158 0.462 0.067 0.194-0.496 0.264zM2.814 7.971l-0.774 0.4-0.127-0.373-0.092-0.268 1.013-0.5-0.020 0.742zM10.364 4.661c0 0.459-0.11 0.893-0.3 1.28l-2.091-0.95c-0.022-0.288-0.171-0.536-0.391-0.692l-0.003-0.002 0.732-2.43c1.189 0.378 2.052 1.487 2.052 2.793zM4.469 4.661c0-1.617 1.322-2.933 2.947-2.933 0.127 0 0.25 0.011 0.372 0.026l-0.716 2.377c-0.010 0-0.019-0.003-0.029-0.003-0 0-0 0-0 0-0.516 0-0.934 0.417-0.936 0.933v0c0.002 0.516 0.42 0.933 0.936 0.933 0 0 0 0 0 0h-0c0.347 0 0.647-0.192 0.809-0.472l1.931 0.877c-0.537 0.723-1.397 1.195-2.368 1.195-1.625 0-2.947-1.316-2.947-2.934zM7.447 5.061c0 0.221-0.181 0.4-0.403 0.4-0 0-0.001 0-0.001 0-0.221 0-0.401-0.179-0.402-0.4v-0c0-0.221 0.181-0.4 0.403-0.4s0.403 0.179 0.403 0.4zM1.232 12.573c-0.055 0.054-0.13 0.088-0.214 0.088s-0.158-0.033-0.213-0.087l0 0c-0.054-0.054-0.088-0.129-0.088-0.211s0.034-0.157 0.088-0.211l0-0 0.481-0.479 0.425 0.424-0.479 0.477zM2.839 14.44c-0.055 0.054-0.131 0.088-0.214 0.088s-0.159-0.033-0.214-0.088l0 0c-0.054-0.054-0.088-0.129-0.088-0.211s0.034-0.157 0.088-0.211l0-0 0.482-0.479 0.426 0.424-0.48 0.477zM4.58 12.706l-0.001 0.001-0.882 0.88-0.426-0.424 0.882-0.878s0 0 0.001-0.001c0.020-0.020 0.032-0.044 0.045-0.068 0.003-0.007 0.010-0.013 0.013-0.020 0.008-0.021 0.010-0.043 0.013-0.065 0.002-0.012 0.007-0.024 0.007-0.036 0-0.018-0.006-0.035-0.010-0.053-0.003-0.016-0.003-0.033-0.009-0.048-0.010-0.025-0.027-0.047-0.046-0.069-0.005-0.006-0.007-0.014-0.013-0.019h-0l-0-0.001-0.804-0.8c-0.009-0.008-0.019-0.012-0.029-0.019-0.013-0.010-0.027-0.020-0.042-0.028l-0.001-0.001c-0.013-0.006-0.029-0.012-0.045-0.016l-0.002-0c-0.015-0.005-0.032-0.008-0.050-0.010l-0.001-0c-0.003-0-0.007-0-0.010-0-0.013 0-0.026 0.001-0.039 0.003l0.001-0c-0.019 0.002-0.037 0.005-0.054 0.011l0.002-0.001c-0.018 0.006-0.034 0.014-0.048 0.023l0.001-0.001c-0.010 0.005-0.021 0.008-0.030 0.014l-0.887 0.662-0.45-0.448 1.2-1.193 2.18 2.145-0.463 0.46zM7.989 9.197c-0.008-0.001-0.015 0.002-0.022 0.002-0.004-0-0.008-0-0.013-0-0.016 0-0.031 0.001-0.046 0.004l0.002-0c-0.035 0.005-0.066 0.017-0.094 0.035l0.001-0.001c-0.015 0.009-0.029 0.019-0.042 0.031-0.006 0.005-0.014 0.008-0.020 0.014l-2.349 2.573-2.164-2.128 1.416-1.409c0.048-0.048 0.078-0.115 0.078-0.188 0-0.147-0.12-0.267-0.267-0.267-0 0-0 0-0.001 0h0l-1.109 0.006 0.014-0.804 1.552 0.013c0.632 0.648 1.514 1.050 2.489 1.050 0.001 0 0.001 0 0.002 0h-0c0.219 0 0.432-0.023 0.64-0.061 0.020 0.016 0.040 0.032 0.065 0.043l1.204 0.48 0.076 0.379 0.089 0.443-1.502-0.213zM10.010 9.286l-0.157-0.779 0.723-0.54 0.473 0.628-1.040 0.691zM11.887 7.871l-0.419 0.392-0.466-0.618 0.416-0.319c0.078-0.060 0.175-0.084 0.271-0.072 0.097 0.013 0.182 0.064 0.24 0.142 0.108 0.146 0.090 0.349-0.043 0.474z"></path>
<path fill="#2e2f42" style="fill: var(--color2, #2e2f42)" d="M6.801 9.272l-1.072-1.067c-0.048-0.048-0.115-0.078-0.188-0.078s-0.14 0.030-0.188 0.078l-1.071 1.067c-0.048 0.048-0.078 0.115-0.078 0.189s0.030 0.141 0.078 0.189l-0-0 1.071 1.066c0.048 0.048 0.115 0.078 0.188 0.078s0.14-0.030 0.188-0.078l1.072-1.066c0.049-0.048 0.079-0.115 0.079-0.189s-0.030-0.141-0.079-0.189l-0-0zM5.542 10.152l-0.693-0.691 0.693-0.69 0.694 0.69-0.694 0.691zM8.582 2.535l-0.129 0.518c0.036 0.009 0.869 0.226 0.869 1.075h0.534c0-1.008-0.833-1.483-1.273-1.593zM9.855 4.661h-0.533v0.534h0.533v-0.534z"></path>
</symbol>
<symbol id="icon-client1" viewBox="0 0 14 16">
<path  style="fill: ar(--color3, #8e8f99)" d="M2.043 0l2.386 2.273-4.428-0.002v11.026h11.574v-4.216l2.383 2.27v-11.351h-11.915zM11.47 8.814l-6.764-6.444h6.764v6.444zM9.37 11.684h-7.538v-7.416h0.533v6.914h7.005v0.502zM3.335 15.341l-0.281-0.578h-0.232l0.407 0.765v0.446h0.21v-0.446l0.407-0.765h-0.231l-0.281 0.578zM4.37 14.763h0.050l0.457 1.21h-0.219l-0.098-0.283h-0.468l-0.098 0.283h-0.219l0.455-1.21h0.14zM4.148 15.524h0.354l-0.177-0.513-0.177 0.513zM5.611 15.323c-0.004-0.004-0.012-0.015-0.021-0.026l-0.006-0.008c-0.027-0.034-0.051-0.073-0.071-0.115l-0.002-0.004c-0.016-0.035-0.026-0.076-0.026-0.12 0-0 0-0 0-0v0c0-0.063 0.013-0.117 0.039-0.163s0.064-0.081 0.109-0.104l0.001-0.001c0.048-0.025 0.103-0.037 0.167-0.037 0.062 0 0.115 0.013 0.159 0.037 0.084 0.044 0.141 0.131 0.141 0.231 0 0.037-0.008 0.073-0.022 0.105l0.001-0.002c-0.015 0.033-0.034 0.062-0.058 0.087l0-0c-0.025 0.027-0.053 0.051-0.083 0.073l-0.002 0.001-0.084 0.061 0.24 0.283c0.033-0.063 0.052-0.138 0.052-0.217 0-0.003-0-0.006-0-0.009v0h0.173c0 0.059-0.006 0.114-0.017 0.167-0.016 0.076-0.047 0.143-0.090 0.201l0.001-0.001 0.177 0.209h-0.231l-0.070-0.083c-0.036 0.027-0.077 0.050-0.121 0.067l-0.003 0.001c-0.055 0.020-0.118 0.031-0.183 0.031-0.001 0-0.003 0-0.004-0h0c-0.080 0-0.15-0.015-0.209-0.044-0.057-0.028-0.103-0.069-0.135-0.12l-0.001-0.001c-0.030-0.049-0.048-0.108-0.048-0.171 0-0.002 0-0.004 0-0.006v0c0-0.049 0.010-0.093 0.031-0.129 0.021-0.038 0.049-0.073 0.084-0.105 0.033-0.030 0.070-0.059 0.112-0.089zM5.71 15.445l-0.025 0.018c-0.025 0.020-0.047 0.042-0.065 0.068l-0.001 0.001c-0.021 0.031-0.034 0.070-0.034 0.112 0 0.034 0.008 0.066 0.023 0.093l-0.001-0.001c0.016 0.029 0.039 0.053 0.067 0.069l0.001 0c0.030 0.016 0.065 0.025 0.103 0.025 0.002 0 0.004-0 0.007-0h-0c0.046 0 0.091-0.010 0.134-0.031 0.023-0.012 0.043-0.024 0.062-0.039l-0.001 0.001-0.269-0.317zM5.758 15.224l0.074-0.050c0.029-0.018 0.054-0.041 0.074-0.067l0-0.001c0.014-0.023 0.023-0.050 0.023-0.079 0-0.002-0-0.004-0-0.006l0 0c-0.002-0.065-0.055-0.117-0.12-0.117-0.002 0-0.005 0-0.007 0l0-0c-0.001-0-0.002-0-0.004-0-0.049 0-0.092 0.029-0.112 0.071l-0 0.001c-0.009 0.020-0.014 0.044-0.014 0.069 0 0.029 0.007 0.056 0.020 0.080l-0-0.001c0.013 0.026 0.030 0.053 0.052 0.082l0.014 0.018zM7.875 15.579h-0.208c-0.005 0.050-0.018 0.095-0.039 0.136l0.001-0.002c-0.019 0.036-0.048 0.064-0.083 0.082l-0.001 0.001c-0.038 0.018-0.083 0.029-0.131 0.029-0.004 0-0.009-0-0.013-0l0.001 0c-0.002 0-0.004 0-0.007 0-0.043 0-0.084-0.011-0.12-0.030l0.001 0.001c-0.036-0.020-0.065-0.048-0.086-0.081l-0.001-0.001c-0.022-0.037-0.040-0.079-0.049-0.124l-0-0.003c-0.010-0.048-0.016-0.103-0.016-0.16 0-0.002 0-0.004 0-0.007v0-0.102c0-0.065 0.006-0.122 0.018-0.172s0.030-0.093 0.054-0.127c0.023-0.033 0.053-0.060 0.088-0.078l0.001-0.001c0.035-0.017 0.075-0.027 0.118-0.027 0.002 0 0.005 0 0.007 0h-0c0.058 0 0.105 0.010 0.141 0.030s0.063 0.048 0.081 0.085c0.019 0.037 0.031 0.082 0.036 0.133h0.208c-0.007-0.080-0.032-0.153-0.069-0.218l0.001 0.002c-0.037-0.063-0.090-0.113-0.152-0.146l-0.002-0.001c-0.067-0.034-0.145-0.054-0.229-0.054-0.005 0-0.011 0-0.016 0l0.001-0c-0.076 0-0.144 0.014-0.205 0.040s-0.112 0.065-0.156 0.116c-0.043 0.051-0.077 0.111-0.099 0.176l-0.001 0.004c-0.023 0.070-0.034 0.149-0.034 0.236v0.101c0 0.087 0.011 0.165 0.033 0.236s0.055 0.13 0.098 0.18c0.043 0.049 0.094 0.087 0.154 0.115s0.127 0.040 0.202 0.040c0.097 0 0.18-0.018 0.249-0.053s0.121-0.084 0.159-0.146c0.037-0.062 0.060-0.133 0.066-0.212zM9.029 15.401v-0.066c0-0.091-0.012-0.173-0.036-0.245-0.023-0.072-0.058-0.133-0.103-0.186l0.001 0.001c-0.043-0.050-0.096-0.090-0.156-0.116l-0.003-0.001c-0.061-0.027-0.129-0.041-0.204-0.041s-0.142 0.014-0.204 0.041c-0.061 0.027-0.114 0.066-0.159 0.117s-0.078 0.113-0.103 0.186c-0.023 0.070-0.037 0.151-0.037 0.234 0 0.004 0 0.008 0 0.011v-0.001 0.066c0 0.092 0.012 0.174 0.037 0.246 0.024 0.071 0.059 0.133 0.105 0.186l-0.001-0.001c0.045 0.051 0.098 0.090 0.159 0.117 0.062 0.027 0.129 0.040 0.204 0.040s0.143-0.014 0.204-0.040c0.061-0.027 0.114-0.066 0.158-0.117s0.078-0.112 0.102-0.185c0.024-0.073 0.036-0.155 0.036-0.246zM8.821 15.333v0.068c0 0.068-0.007 0.128-0.020 0.18-0.011 0.050-0.031 0.094-0.057 0.133l0.001-0.001c-0.023 0.034-0.054 0.061-0.090 0.080l-0.001 0.001c-0.035 0.017-0.075 0.027-0.118 0.027-0.002 0-0.004-0-0.006-0h0c-0.002 0-0.003 0-0.005 0-0.043 0-0.083-0.010-0.12-0.027l0.002 0.001c-0.038-0.020-0.069-0.047-0.092-0.080l-0.001-0.001c-0.026-0.038-0.046-0.082-0.058-0.129l-0.001-0.003c-0.013-0.051-0.020-0.11-0.020-0.17 0-0.003 0-0.007 0-0.010v0.001-0.068c0-0.067 0.007-0.127 0.020-0.179s0.032-0.095 0.058-0.13c0.024-0.034 0.055-0.061 0.091-0.079l0.001-0.001c0.035-0.017 0.075-0.028 0.118-0.028 0.002 0 0.003 0 0.005 0h-0c0.046 0 0.087 0.009 0.124 0.027s0.067 0.044 0.092 0.080c0.026 0.035 0.045 0.078 0.058 0.13 0.014 0.052 0.020 0.111 0.020 0.179z"></path>
</symbol>
<symbol id="icon-client2" viewBox="0 0 12 16">
<path   d="M5.266 0.903h-0.042c-0.065-0.004-0.129-0.006-0.194-0.007h-0.14c-0.122 0-0.247 0.003-0.37 0.009-0.004-0-0.009-0.001-0.014-0.001s-0.010 0-0.015 0.001l0.001-0c-1.188 0.069-2.291 0.366-3.288 0.848l0.052-0.023-0.133 0.064v6.813l0.311-0.106c0.273-0.094 0.564-0.178 0.866-0.257 0.744-0.199 1.601-0.319 2.484-0.331l0.007-0v0.895c-0.111 0.001-0.219 0.004-0.328 0.009h-0.026c-0.699 0.039-1.355 0.144-1.986 0.31l0.069-0.015c-0.867 0.22-1.627 0.525-2.333 0.915l0.050-0.025v-8.738c0.69-0.41 1.487-0.744 2.332-0.96l0.063-0.014c0.676-0.182 1.454-0.288 2.255-0.291h0.133c0.157 0.004 0.311 0.011 0.455 0.022 0.415 0.030 0.799 0.094 1.17 0.189l-0.045-0.010v0.881c-0.314-0.077-0.686-0.135-1.067-0.163l-0.023-0.001-0.022-0.002c-0.076-0.006-0.152-0.013-0.223-0.013zM6.816 1.803c0.195 0.015 0.398 0.022 0.602 0.022 0.845-0.003 1.662-0.114 2.441-0.32l-0.068 0.015c0.867-0.221 1.626-0.526 2.332-0.916l-0.050 0.025v8.582c-0.69 0.41-1.487 0.744-2.332 0.96l-0.064 0.014c-0.677 0.181-1.454 0.287-2.255 0.29h-0.002c-0.016 0-0.036 0-0.055 0-0.588 0-1.159-0.074-1.705-0.212l0.048 0.010v-8.638c0.132 0.031 0.269 0.059 0.407 0.082 0.227 0.038 0.467 0.066 0.701 0.084zM11.184 1.87l-0.311 0.105c-0.286 0.096-0.575 0.182-0.866 0.259-0.775 0.208-1.666 0.328-2.584 0.332h-0.002c-0.203 0-0.39-0.006-0.57-0.017l-0.248-0.016v7.008l0.213 0.018c0.198 0.018 0.402 0.026 0.607 0.026 0.725-0.003 1.427-0.099 2.095-0.277l-0.058 0.013c0.611-0.155 1.14-0.351 1.643-0.595l-0.051 0.022 0.133-0.064v-6.815z"></path>
<path   d="M0.842 12.988c-0.084-0.087-0.201-0.14-0.33-0.14-0.006 0-0.011 0-0.017 0l0.001-0c-0.002-0-0.004-0-0.007-0-0.070 0-0.136 0.014-0.197 0.039l0.003-0.001c-0.118 0.047-0.21 0.14-0.255 0.256l-0.001 0.003c-0.025 0.062-0.037 0.127-0.036 0.193v1.167c-0.003 0.082 0.013 0.164 0.046 0.239 0.028 0.060 0.067 0.113 0.117 0.157 0.046 0.039 0.101 0.068 0.16 0.083 0.057 0.016 0.116 0.024 0.174 0.024 0.065 0.001 0.129-0.013 0.188-0.041 0.175-0.078 0.295-0.25 0.295-0.451v-0.13h-0.306v0.104c0 0.002 0 0.005 0 0.007 0 0.035-0.007 0.068-0.019 0.099l0.001-0.002c-0.010 0.026-0.025 0.048-0.044 0.066l-0 0c-0.035 0.027-0.079 0.044-0.128 0.045h-0c-0.005 0.001-0.012 0.001-0.018 0.001-0.051 0-0.097-0.025-0.125-0.063l-0-0c-0.026-0.041-0.041-0.091-0.041-0.145 0-0.004 0-0.008 0-0.012l-0 0.001v-1.089c-0.002-0.060 0.011-0.12 0.038-0.174 0.028-0.043 0.076-0.072 0.131-0.072 0.006 0 0.013 0 0.019 0.001l-0.001-0c0.002-0 0.004-0 0.006-0 0.053 0 0.101 0.026 0.13 0.066l0 0c0.032 0.041 0.051 0.093 0.051 0.15 0 0.002-0 0.005-0 0.007v-0 0.101h0.302v-0.119c0-0.002 0-0.003 0-0.005 0-0.072-0.014-0.14-0.039-0.203l0.001 0.004c-0.024-0.064-0.059-0.118-0.102-0.165l0 0zM2.655 12.975c-0.093-0.079-0.214-0.128-0.347-0.129h-0c-0.062 0-0.124 0.011-0.182 0.033-0.126 0.045-0.225 0.138-0.278 0.256l-0.001 0.003c-0.031 0.071-0.046 0.148-0.045 0.226v1.119c-0.002 0.079 0.013 0.157 0.045 0.229 0.028 0.060 0.068 0.114 0.118 0.157 0.047 0.043 0.102 0.077 0.161 0.098 0.058 0.022 0.12 0.033 0.182 0.033 0.133-0 0.255-0.050 0.348-0.132l-0.001 0.001c0.049-0.044 0.088-0.097 0.115-0.157 0.031-0.072 0.046-0.15 0.045-0.229v-1.12c0-0.003 0-0.006 0-0.010 0-0.078-0.016-0.152-0.046-0.22l0.001 0.003c-0.028-0.064-0.067-0.118-0.115-0.163l-0-0zM2.513 14.484c0 0.005 0.001 0.011 0.001 0.017 0 0.057-0.023 0.108-0.061 0.145l-0 0c-0.039 0.033-0.089 0.052-0.144 0.052s-0.105-0.020-0.144-0.053l0 0c-0.038-0.037-0.061-0.088-0.061-0.144 0-0.006 0-0.012 0.001-0.018l-0 0.001v-1.12c-0-0.005-0.001-0.011-0.001-0.017 0-0.057 0.023-0.108 0.061-0.145l0-0c0.039-0.033 0.089-0.052 0.144-0.052s0.105 0.020 0.144 0.053l-0-0c0.038 0.037 0.061 0.088 0.061 0.144 0 0.006-0 0.012-0.001 0.018l0-0.001v1.12zM5.036 14.985v-2.12h-0.293l-0.386 1.122h-0.005l-0.389-1.122h-0.29v2.119h0.303v-1.289h0.006l0.296 0.911h0.151l0.299-0.911h0.005v1.289h0.303zM6.756 13.014c-0.046-0.052-0.106-0.092-0.171-0.116-0.062-0.021-0.134-0.033-0.208-0.033-0.004 0-0.008 0-0.012 0l0.001-0h-0.45v2.12h0.302v-0.828h0.155c0.094 0.004 0.188-0.016 0.273-0.058 0.069-0.039 0.125-0.094 0.165-0.16l0.001-0.002c0.035-0.056 0.058-0.119 0.069-0.185 0.010-0.067 0.016-0.144 0.016-0.222 0-0.007-0-0.013-0-0.020l0 0.001c0.003-0.102-0.007-0.204-0.030-0.303-0.021-0.076-0.060-0.142-0.111-0.195l0 0zM6.601 13.66c-0.001 0.040-0.012 0.078-0.029 0.112l0.001-0.002c-0.018 0.033-0.044 0.058-0.077 0.074l-0.001 0c-0.037 0.017-0.081 0.027-0.127 0.027-0.005 0-0.011-0-0.016-0l0.001 0h-0.138v-0.721h0.156c0.004-0 0.009-0 0.015-0 0.044 0 0.086 0.010 0.124 0.028l-0.002-0.001c0.031 0.018 0.056 0.045 0.070 0.077l0 0.001c0.017 0.037 0.026 0.078 0.026 0.118v0.141c0 0.049 0.003 0.1 0 0.146h-0.003zM8.187 12.865h-0.248l-0.467 2.12h0.302l0.089-0.455h0.412l0.089 0.455h0.302l-0.479-2.12zM7.908 14.24l0.149-0.768h0.006l0.148 0.768h-0.302zM10.138 14.142h-0.006l-0.456-1.277h-0.29v2.12h0.302v-1.275h0.006l0.462 1.274h0.284v-2.119h-0.302v1.277zM11.984 12.865l-0.243 0.843h-0.006l-0.243-0.843h-0.319l0.415 1.224v0.896h0.302v-0.896l0.415-1.224h-0.32zM0 15.583h0.146v0.408h0.099v-0.409h0.145v-0.084h-0.389v0.084zM1.224 15.499l-0.191 0.492h0.105l0.041-0.112h0.196l0.042 0.112h0.108l-0.196-0.492h-0.105zM1.208 15.797l0.067-0.182 0.067 0.182h-0.134zM2.433 15.81h0.114v0.063c-0.032 0.026-0.072 0.041-0.117 0.042h-0c-0.002 0-0.005 0-0.007 0-0.039 0-0.075-0.018-0.097-0.047l-0-0c-0.023-0.033-0.037-0.073-0.037-0.117 0-0.004 0-0.008 0-0.012l-0 0.001c0-0.11 0.047-0.164 0.142-0.164 0.003-0 0.007-0.001 0.011-0.001 0.049 0 0.089 0.033 0.101 0.078l0 0.001 0.097-0.019c-0.021-0.096-0.090-0.145-0.209-0.145-0.002-0-0.004-0-0.007-0-0.064 0-0.122 0.024-0.166 0.064l0-0c-0.044 0.044-0.071 0.104-0.071 0.171 0 0.006 0 0.013 0.001 0.019l-0-0.001c-0 0.003-0 0.007-0 0.011 0 0.066 0.024 0.127 0.064 0.174l-0-0c0.043 0.045 0.104 0.073 0.172 0.073 0.005 0 0.011-0 0.016-0.001l-0.001 0c0.002 0 0.005 0 0.008 0 0.078 0 0.148-0.030 0.201-0.079l-0 0v-0.194h-0.213v0.083zM3.669 15.499h-0.1v0.492h0.345v-0.084h-0.245v-0.409zM4.713 15.499h-0.1v0.492h0.1v-0.492zM5.734 15.828l-0.202-0.329h-0.096v0.492h0.092v-0.322l0.198 0.322h0.099v-0.492h-0.091v0.329zM6.658 15.774h0.245v-0.084h-0.245v-0.108h0.264v-0.084h-0.363v0.492h0.374v-0.084h-0.274v-0.133zM8.896 15.693h-0.194v-0.194h-0.098v0.492h0.098v-0.215h0.194v0.215h0.099v-0.492h-0.099v0.194zM9.825 15.774h0.246v-0.084h-0.246v-0.108h0.265v-0.084h-0.363v0.492h0.373v-0.084h-0.274v-0.133zM11.084 15.775c0.086-0.014 0.129-0.059 0.129-0.137 0.001-0.004 0.001-0.009 0.001-0.014 0-0.039-0.019-0.074-0.049-0.095l-0-0c-0.036-0.019-0.079-0.030-0.125-0.030-0.007 0-0.013 0-0.020 0.001l0.001-0h-0.209v0.492h0.099v-0.206h0.019c0.002-0 0.005-0 0.008-0 0.019 0 0.038 0.004 0.054 0.012l-0.001-0c0.014 0.009 0.026 0.021 0.035 0.036l0.107 0.156h0.118l-0.060-0.096c-0.027-0.048-0.064-0.088-0.108-0.117l-0.001-0.001zM10.984 15.706h-0.073v-0.123h0.078c0.006-0.001 0.013-0.001 0.021-0.001 0.028 0 0.056 0.005 0.081 0.013l-0.002-0.001c0.013 0.012 0.021 0.029 0.021 0.048 0 0.021-0.010 0.040-0.026 0.052l-0 0c-0.025 0.008-0.053 0.012-0.082 0.012-0.006 0-0.013-0-0.019-0.001l0.001 0zM12.034 15.774h0.245v-0.084h-0.245v-0.108h0.265v-0.084h-0.364v0.492h0.374v-0.084h-0.274v-0.133z"></path>
</symbol>
<symbol id="icon-client3" viewBox="0 0 17 16">
<path  d="M2.658 15.697c0.006 0 0.012 0.002 0.018 0.004s0.011 0.005 0.016 0.009l-0-0 0.086 0.081c-0.067 0.065-0.148 0.117-0.237 0.152l-0.005 0.002c-0.109 0.039-0.226 0.058-0.344 0.055-0.005 0-0.012 0-0.018 0-0.109 0-0.214-0.019-0.312-0.054l0.006 0.002c-0.094-0.034-0.175-0.083-0.244-0.146l0.001 0.001c-0.066-0.062-0.12-0.137-0.156-0.221l-0.002-0.004c-0.035-0.083-0.055-0.179-0.055-0.28 0-0.003 0-0.006 0-0.009v0c-0-0.003-0-0.006-0-0.009 0-0.101 0.022-0.197 0.061-0.284l-0.002 0.004c0.037-0.084 0.094-0.16 0.167-0.224 0.073-0.063 0.159-0.113 0.253-0.145l0.006-0.002c0.096-0.033 0.207-0.052 0.322-0.052 0.004 0 0.008 0 0.012 0h-0.001c0.105-0.002 0.211 0.014 0.309 0.047 0.085 0.032 0.164 0.076 0.232 0.13l-0.072 0.087c-0.005 0.006-0.011 0.011-0.018 0.015l-0 0c-0.007 0.004-0.016 0.007-0.025 0.007-0.001 0-0.003-0-0.004-0l0 0c-0.012-0.001-0.022-0.004-0.032-0.010l0 0-0.039-0.023-0.053-0.029c-0.049-0.024-0.107-0.042-0.167-0.051l-0.004-0c-0.035-0.006-0.076-0.009-0.118-0.009-0.004 0-0.008 0-0.011 0h0.001c-0.003-0-0.006-0-0.008-0-0.083 0-0.162 0.014-0.236 0.040l0.005-0.002c-0.072 0.025-0.135 0.062-0.188 0.109l0.001-0.001c-0.054 0.050-0.095 0.109-0.122 0.173-0.028 0.065-0.044 0.141-0.044 0.221 0 0.003 0 0.005 0 0.008v-0c-0 0.003-0 0.006-0 0.009 0 0.080 0.016 0.157 0.046 0.227l-0.001-0.004c0.055 0.132 0.162 0.232 0.295 0.278l0.003 0.001c0.070 0.025 0.146 0.037 0.222 0.037 0.044 0.001 0.088-0.002 0.132-0.007 0.109-0.011 0.207-0.054 0.285-0.119l-0.001 0.001c0.011-0.009 0.025-0.014 0.041-0.015h0zM5.146 15.29c0.002 0.098-0.018 0.195-0.058 0.286-0.038 0.088-0.093 0.162-0.162 0.222l-0.001 0.001c-0.072 0.063-0.158 0.113-0.254 0.146-0.098 0.033-0.21 0.052-0.327 0.052s-0.23-0.019-0.335-0.054l0.008 0.002c-0.098-0.034-0.182-0.084-0.255-0.147l0.001 0.001c-0.069-0.061-0.124-0.136-0.162-0.22l-0.002-0.004c-0.037-0.085-0.058-0.183-0.058-0.287s0.021-0.202 0.060-0.292l-0.002 0.005c0.037-0.084 0.092-0.16 0.164-0.226 0.072-0.061 0.158-0.109 0.253-0.14 0.211-0.070 0.444-0.070 0.655 0 0.096 0.033 0.182 0.083 0.254 0.146 0.136 0.121 0.221 0.297 0.221 0.493 0 0.006-0 0.012-0 0.018l0-0.001zM4.919 15.29c0.002-0.078-0.012-0.156-0.041-0.23-0.052-0.134-0.16-0.236-0.294-0.28l-0.003-0.001c-0.071-0.024-0.153-0.038-0.238-0.038s-0.167 0.014-0.243 0.039l0.005-0.002c-0.071 0.025-0.131 0.062-0.183 0.109l0-0c-0.050 0.047-0.090 0.104-0.115 0.169l-0.001 0.003c-0.055 0.15-0.055 0.311 0 0.46 0.024 0.064 0.064 0.122 0.116 0.172 0.051 0.047 0.113 0.084 0.182 0.108 0.153 0.049 0.322 0.049 0.476 0 0.069-0.024 0.132-0.061 0.182-0.108 0.052-0.050 0.091-0.109 0.116-0.172 0.029-0.074 0.043-0.152 0.041-0.23zM6.844 15.531l0.022 0.052c0.009-0.018 0.016-0.035 0.025-0.052 0.008-0.018 0.018-0.034 0.028-0.051l0.55-0.855c0.011-0.015 0.021-0.024 0.031-0.027s0.024-0.005 0.037-0.005c0.003 0 0.006 0 0.009 0l-0-0h0.163v1.39h-0.193v-1.065c-0-0.007-0.001-0.016-0.001-0.024s0-0.017 0.001-0.025l-0 0.001-0.554 0.867c-0.008 0.014-0.019 0.024-0.032 0.031l-0 0c-0.013 0.007-0.029 0.012-0.047 0.012-0 0-0 0-0.001 0h-0.031c-0 0-0.001 0-0.001 0-0.017 0-0.033-0.004-0.047-0.012l0 0c-0.014-0.007-0.024-0.018-0.032-0.031l-0-0-0.57-0.873v1.116h-0.187v-1.388h0.163c0.002-0 0.005-0 0.007-0 0.014 0 0.027 0.002 0.039 0.005l-0.001-0c0.013 0.005 0.023 0.015 0.030 0.026l0 0 0.562 0.856c0.011 0.016 0.021 0.033 0.028 0.050zM8.915 15.462v0.521h-0.215v-1.388h0.48c0.091-0.002 0.181 0.009 0.268 0.030 0.070 0.017 0.134 0.046 0.19 0.086 0.046 0.036 0.083 0.082 0.107 0.134l0.001 0.002c0.025 0.057 0.038 0.117 0.037 0.178 0 0.002 0 0.004 0 0.006 0 0.127-0.061 0.239-0.155 0.31l-0.001 0.001c-0.054 0.041-0.118 0.073-0.187 0.091l-0.004 0.001c-0.084 0.023-0.171 0.034-0.259 0.032l-0.261-0.004zM8.915 15.313h0.261c0.057 0 0.113-0.007 0.167-0.021 0.046-0.013 0.087-0.034 0.122-0.060l-0.001 0.001c0.061-0.049 0.099-0.123 0.099-0.206 0-0.001 0-0.002-0-0.003v0c0-0.004 0-0.009 0-0.014 0-0.036-0.008-0.070-0.023-0.1l0.001 0.001c-0.018-0.038-0.044-0.070-0.075-0.094l-0.001-0c-0.072-0.047-0.161-0.076-0.256-0.076-0.012 0-0.024 0-0.036 0.001l0.002-0h-0.261v0.572zM11.811 15.985h-0.171c-0.001 0-0.002 0-0.003 0-0.016 0-0.032-0.005-0.045-0.013l0 0c-0.012-0.008-0.021-0.019-0.028-0.032l-0-0-0.146-0.336h-0.736l-0.152 0.336c-0.006 0.013-0.015 0.023-0.027 0.031l-0 0c-0.013 0.009-0.029 0.014-0.046 0.014-0.001 0-0.002-0-0.003-0h-0.17l0.646-1.39h0.224l0.655 1.39zM10.744 15.468h0.608l-0.256-0.566c-0.017-0.036-0.034-0.079-0.047-0.124l-0.002-0.006-0.025 0.073c-0.008 0.022-0.016 0.042-0.023 0.059l-0.254 0.566zM12.741 14.601c0.013 0.006 0.023 0.014 0.032 0.025l0 0 0.943 1.048v-1.079h0.193v1.39h-0.108c-0.001 0-0.003 0-0.004 0-0.014 0-0.028-0.003-0.041-0.008l0.001 0c-0.013-0.007-0.025-0.016-0.034-0.026l-0-0-0.941-1.047c0 0.007 0.001 0.016 0.001 0.024s-0 0.017-0.001 0.025l0-0.001v1.033h-0.193v-1.39h0.114c0.013-0 0.027 0.002 0.039 0.006zM15.497 15.432v0.552h-0.215v-0.552l-0.596-0.837h0.193c0.001-0 0.003-0 0.005-0 0.015 0 0.030 0.004 0.042 0.012l-0-0c0.012 0.009 0.021 0.020 0.029 0.031l0.373 0.54c0.026 0.036 0.048 0.076 0.064 0.12l0.001 0.004 0.028-0.060c0.011-0.022 0.023-0.043 0.037-0.064l0.368-0.544c0.008-0.011 0.017-0.021 0.027-0.029l0-0c0.012-0.009 0.027-0.014 0.043-0.014 0.001 0 0.003 0 0.004 0l-0-0h0.195l-0.597 0.841zM6.737 12.26c0.094 0.010 0.188 0.018 0.284 0.026 1.453-0.556 2.683-1.465 3.535-2.614s1.289-2.487 1.255-3.848l-1.602-1.369c0.325 1.448 0.173 2.945-0.44 4.324s-1.664 2.583-3.033 3.481z"></path>
<path  d="M6.165 12.197l0.043 0.007c1.463-0.894 2.58-2.143 3.203-3.585s0.727-3.010 0.296-4.503l-2.282-1.949c0.923 1.602 1.294 3.396 1.071 5.171s-1.032 3.461-2.331 4.859zM13.902 7.431c-0.388 1.495-1.329 2.843-2.684 3.844-0.369 0.277-0.787 0.536-1.227 0.76l-0.049 0.022c1.104-0.277 2.118-0.767 2.965-1.432s1.504-1.488 1.92-2.404l-0.925-0.79z"></path>
<path  d="M13.54 7.211l-1.317-1.125c-0.025 1.284-0.452 2.537-1.237 3.632s-1.898 1.99-3.224 2.592h0.007c0.295 0 0.591-0.015 0.884-0.045 1.24-0.432 2.335-1.12 3.188-2.002s1.437-1.931 1.7-3.052zM6.356 1.345l-1.571-1.345c-1.405 0.464-2.613 1.279-3.467 2.34s-1.314 2.316-1.317 3.603c0.005 1.422 0.565 2.802 1.592 3.921s2.46 1.914 4.075 2.259c1.442-1.5 2.286-3.355 2.409-5.293s-0.479-3.86-1.721-5.485zM17.171 7.004c-0.006-1.687-0.793-3.304-2.189-4.497s-3.288-1.865-5.263-1.87c-0.005-0-0.011-0-0.017-0-0.948 0-1.86 0.155-2.711 0.442l0.060-0.017 9.623 8.222c0.313-0.669 0.497-1.452 0.498-2.279v-0z"></path>
</symbol>
<symbol id="icon-client4" viewBox="0 0 33 16">
<path  d="M5.104 4.885h-0.001c-0.931 0-1.686 0.681-1.686 1.52v0.001c0 0.839 0.755 1.52 1.686 1.52h0.001c0.931 0 1.686-0.68 1.686-1.52v-0.001c0-0.839-0.755-1.52-1.686-1.52zM17.546 4.399c-0.002-1.166-0.517-2.283-1.431-3.108s-2.153-1.289-3.447-1.291c-1.293 0.002-2.533 0.466-3.448 1.291s-1.43 1.942-1.432 3.108v6.429s9.757-0.98 9.758-6.428v-0.001zM0 12.938c0.002 0.811 0.361 1.589 0.997 2.162s1.499 0.897 2.398 0.9c0.9-0.002 1.762-0.325 2.398-0.899s0.994-1.35 0.997-2.162v-4.473s-6.789 0.682-6.789 4.472zM3.395 13.74c-0.176 0-0.348-0.047-0.494-0.135-0.143-0.085-0.255-0.208-0.325-0.355l-0.002-0.005c-0.043-0.090-0.068-0.195-0.068-0.307 0-0.055 0.006-0.109 0.018-0.161l-0.001 0.005c0.038-0.164 0.124-0.305 0.243-0.41l0.001-0.001c0.124-0.11 0.279-0.188 0.45-0.219l0.006-0.001c0.172-0.031 0.351-0.015 0.514 0.046s0.301 0.163 0.399 0.295 0.15 0.287 0.15 0.445c0 0.105-0.022 0.21-0.067 0.308s-0.11 0.186-0.192 0.261c-0.081 0.073-0.177 0.132-0.283 0.172l-0.006 0.002c-0.101 0.039-0.218 0.061-0.34 0.061-0 0-0.001 0-0.001 0h0v-0.003zM9.604 12.299v1.665h-0.343v-1.665h0.343zM10.267 13.010v0.268h-0.757v-0.268h0.757zM10.347 12.299v0.268h-0.836v-0.268h0.837zM11.913 13.092v0.079c0 0.127-0.017 0.24-0.052 0.341-0.033 0.099-0.082 0.185-0.146 0.258l0.001-0.001c-0.062 0.070-0.137 0.124-0.224 0.161-0.082 0.035-0.177 0.056-0.277 0.056-0.004 0-0.007-0-0.011-0h0.001c-0.104 0-0.2-0.019-0.287-0.056-0.088-0.039-0.163-0.093-0.223-0.161l-0.001-0.001c-0.064-0.072-0.114-0.158-0.146-0.252l-0.002-0.005c-0.033-0.097-0.052-0.209-0.052-0.326 0-0.005 0-0.011 0-0.016l-0 0.001v-0.079c0-0.127 0.017-0.241 0.052-0.341 0.033-0.099 0.082-0.185 0.146-0.258l-0.001 0.001c0.063-0.071 0.138-0.125 0.224-0.162 0.087-0.037 0.183-0.056 0.287-0.056 0.105 0 0.201 0.019 0.287 0.056s0.162 0.091 0.224 0.162c0.063 0.071 0.112 0.156 0.146 0.258 0.035 0.1 0.053 0.213 0.053 0.34zM11.566 13.171v-0.081c0-0.088-0.008-0.166-0.024-0.233-0.014-0.064-0.039-0.121-0.072-0.171l0.001 0.002c-0.029-0.043-0.067-0.078-0.113-0.102l-0.002-0.001c-0.043-0.022-0.094-0.035-0.148-0.035-0.002 0-0.005 0-0.007 0h0c-0.058 0-0.109 0.012-0.154 0.035-0.046 0.025-0.084 0.060-0.112 0.102l-0.001 0.001c-0.031 0.049-0.056 0.105-0.069 0.166l-0.001 0.003c-0.015 0.066-0.024 0.141-0.024 0.218 0 0.005 0 0.010 0 0.015l-0-0.001v0.081c0 0.088 0.008 0.165 0.024 0.233s0.040 0.124 0.071 0.171c0.031 0.046 0.069 0.080 0.114 0.104s0.096 0.036 0.154 0.036c0.058 0 0.109-0.012 0.155-0.035 0.046-0.025 0.085-0.060 0.112-0.103l0.001-0.001c0.030-0.047 0.054-0.103 0.070-0.171 0.015-0.066 0.024-0.142 0.024-0.219 0-0.005-0-0.010-0-0.015l0 0.001zM13.026 13.527c0-0.001 0-0.002 0-0.004 0-0.027-0.005-0.054-0.014-0.078l0.001 0.002c-0.010-0.027-0.027-0.049-0.048-0.066l-0-0c-0.029-0.024-0.062-0.044-0.097-0.059l-0.003-0.001c-0.044-0.021-0.099-0.042-0.156-0.059l-0.010-0.003c-0.088-0.028-0.159-0.056-0.228-0.088l0.013 0.005c-0.068-0.031-0.127-0.066-0.18-0.108l0.002 0.002c-0.049-0.039-0.089-0.087-0.12-0.141l-0.001-0.002c-0.028-0.052-0.044-0.115-0.044-0.181 0-0.003 0-0.006 0-0.008v0c-0-0.002-0-0.003-0-0.005 0-0.067 0.017-0.13 0.047-0.185l-0.001 0.002c0.030-0.057 0.073-0.106 0.128-0.146 0.055-0.041 0.12-0.073 0.194-0.095 0.076-0.022 0.158-0.033 0.248-0.033 0.123 0 0.23 0.022 0.321 0.066s0.162 0.105 0.213 0.182c0.051 0.077 0.076 0.165 0.076 0.264h-0.341c0-0.002 0-0.004 0-0.006 0-0.045-0.011-0.087-0.032-0.123l0.001 0.001c-0.021-0.038-0.052-0.069-0.090-0.088l-0.001-0.001c-0.041-0.020-0.090-0.032-0.141-0.032-0.004 0-0.008 0-0.013 0l0.001-0c-0.003-0-0.007-0-0.011-0-0.049 0-0.096 0.010-0.139 0.028l0.002-0.001c-0.037 0.015-0.068 0.040-0.089 0.072l-0 0.001c-0.018 0.027-0.029 0.061-0.029 0.098 0 0.001 0 0.002 0 0.003v-0c0 0.028 0.007 0.054 0.020 0.076 0.017 0.026 0.039 0.047 0.064 0.063l0.001 0.001c0.028 0.020 0.062 0.039 0.104 0.056s0.089 0.035 0.143 0.052c0.091 0.027 0.171 0.058 0.239 0.092s0.127 0.073 0.174 0.116c0.047 0.043 0.082 0.091 0.105 0.145s0.035 0.116 0.035 0.184c0 0.005 0 0.010 0 0.016 0 0.133-0.065 0.25-0.164 0.323l-0.001 0.001c-0.053 0.039-0.117 0.069-0.191 0.090s-0.156 0.031-0.248 0.031c-0.082 0-0.164-0.011-0.244-0.032-0.083-0.023-0.156-0.057-0.221-0.101l0.003 0.002c-0.064-0.044-0.116-0.101-0.154-0.167l-0.001-0.002c-0.039-0.069-0.058-0.15-0.058-0.244h0.344c0 0.052 0.008 0.096 0.024 0.132s0.038 0.064 0.067 0.086l0.001 0c0.030 0.022 0.065 0.039 0.103 0.048l0.002 0c0.041 0.010 0.086 0.015 0.135 0.015 0.004 0 0.008 0 0.013 0 0.048 0 0.094-0.009 0.136-0.026l-0.002 0.001c0.068-0.027 0.114-0.092 0.114-0.168 0-0.001 0-0.002-0-0.003v0zM14.347 12.299v1.665h-0.342v-1.665h0.342zM14.859 12.299v0.268h-1.358v-0.268h1.358zM16.172 13.696v0.268h-0.886v-0.268h0.886zM15.398 12.299v1.665h-0.343v-1.665h0.343zM16.056 12.976v0.261h-0.771v-0.261h0.771zM16.171 12.299v0.268h-0.885v-0.268h0.885zM16.372 12.299h0.62c0.128 0 0.237 0.019 0.328 0.057 0.092 0.038 0.163 0.095 0.213 0.169s0.074 0.167 0.074 0.276c0 0.089-0.015 0.166-0.046 0.23s-0.073 0.117-0.126 0.158l-0.001 0.001c-0.055 0.042-0.118 0.076-0.186 0.099l-0.005 0.001-0.108 0.057h-0.54l-0.002-0.268h0.401c0.003 0 0.007 0 0.011 0 0.050 0 0.098-0.012 0.14-0.033l-0.002 0.001c0.038-0.020 0.069-0.051 0.089-0.088l0.001-0.001c0.019-0.037 0.031-0.080 0.031-0.126 0-0.002-0-0.004-0-0.007v0c0-0.002 0-0.005 0-0.008 0-0.047-0.011-0.092-0.031-0.132l0.001 0.002c-0.020-0.039-0.051-0.069-0.089-0.088l-0.001-0.001c-0.041-0.020-0.090-0.031-0.141-0.031-0.004 0-0.008 0-0.011 0l0.001-0h-0.278v1.396h-0.343v-1.665zM17.302 13.963l-0.379-0.742 0.362-0.002 0.384 0.729v0.016h-0.367zM19.103 13.37h-0.424v-0.268h0.424c0.004 0 0.009 0 0.014 0 0.053 0 0.103-0.012 0.148-0.033l-0.002 0.001c0.039-0.021 0.070-0.052 0.090-0.091l0.001-0.001c0.018-0.040 0.028-0.086 0.028-0.135s-0.010-0.095-0.029-0.137l0.001 0.002c-0.020-0.043-0.051-0.078-0.089-0.102l-0.001-0.001c-0.042-0.025-0.093-0.039-0.148-0.039-0.004 0-0.009 0-0.013 0l0.001-0h-0.306v1.396h-0.343v-1.665h0.648c0.131 0 0.242 0.023 0.336 0.071 0.094 0.046 0.165 0.111 0.215 0.193s0.074 0.176 0.074 0.282c0 0.108-0.025 0.201-0.074 0.279s-0.121 0.139-0.215 0.182c-0.094 0.043-0.205 0.064-0.336 0.064zM21.081 13.696v0.268h-0.886v-0.268h0.886zM20.307 12.299v1.665h-0.343v-1.665h0.343zM20.965 12.976v0.261h-0.77v-0.261h0.77zM21.080 12.299v0.268h-0.885v-0.268h0.885zM22.048 12.299v1.665h-0.341v-1.665h0.342zM22.56 12.299v0.268h-1.358v-0.268h1.358zM23.873 13.696v0.268h-0.886v-0.268h0.886zM23.099 12.299v1.665h-0.343v-1.665h0.343zM23.757 12.976v0.261h-0.77v-0.261h0.77zM23.872 12.299v0.268h-0.885v-0.268h0.885zM24.073 12.299h0.62c0.128 0 0.237 0.019 0.329 0.057s0.163 0.095 0.213 0.169c0.049 0.075 0.074 0.167 0.074 0.276 0 0.089-0.016 0.166-0.046 0.23s-0.073 0.117-0.126 0.158l-0.001 0.001c-0.055 0.042-0.118 0.076-0.187 0.099l-0.005 0.001-0.108 0.057h-0.54l-0.002-0.268h0.402c0.003 0 0.007 0 0.011 0 0.050 0 0.098-0.012 0.14-0.033l-0.002 0.001c0.038-0.020 0.069-0.051 0.089-0.088l0.001-0.001c0.020-0.037 0.031-0.081 0.031-0.127 0-0.002-0-0.004-0-0.006v0c0-0.002 0-0.004 0-0.007 0-0.048-0.011-0.093-0.031-0.133l0.001 0.002c-0.020-0.039-0.051-0.069-0.089-0.088l-0.001-0.001c-0.041-0.020-0.090-0.031-0.141-0.031-0.004 0-0.008 0-0.011 0l0.001-0h-0.277v1.396h-0.343v-1.665zM25.004 13.963l-0.38-0.742 0.363-0.002 0.384 0.729v0.016h-0.367zM26.44 13.527c0-0.001 0-0.002 0-0.003 0-0.028-0.005-0.054-0.015-0.079l0.001 0.002c-0.010-0.027-0.027-0.049-0.048-0.066l-0-0c-0.029-0.024-0.061-0.044-0.097-0.059l-0.003-0.001c-0.044-0.021-0.099-0.042-0.156-0.059l-0.010-0.003c-0.088-0.028-0.159-0.056-0.228-0.088l0.013 0.005c-0.068-0.031-0.127-0.066-0.18-0.108l0.002 0.002c-0.049-0.039-0.089-0.087-0.12-0.141l-0.001-0.002c-0.028-0.052-0.044-0.115-0.044-0.181 0-0.003 0-0.006 0-0.008v0c-0-0.002-0-0.003-0-0.005 0-0.067 0.017-0.13 0.047-0.185l-0.001 0.002c0.030-0.057 0.073-0.106 0.128-0.146 0.055-0.041 0.12-0.073 0.194-0.095 0.076-0.022 0.158-0.033 0.248-0.033 0.123 0 0.23 0.022 0.321 0.066s0.162 0.105 0.213 0.182c0.051 0.077 0.076 0.165 0.076 0.264h-0.341c0-0.002 0-0.004 0-0.006 0-0.045-0.011-0.087-0.032-0.123l0.001 0.001c-0.021-0.038-0.052-0.069-0.090-0.088l-0.001-0.001c-0.041-0.020-0.090-0.032-0.141-0.032-0.004 0-0.008 0-0.013 0l0.001-0c-0.003-0-0.007-0-0.011-0-0.049 0-0.096 0.010-0.139 0.028l0.002-0.001c-0.037 0.015-0.067 0.040-0.089 0.072l-0 0.001c-0.019 0.028-0.030 0.062-0.030 0.098 0 0.001 0 0.002 0 0.003v-0c0 0.028 0.007 0.054 0.020 0.076 0.017 0.026 0.039 0.047 0.064 0.063l0.001 0.001c0.028 0.020 0.062 0.039 0.104 0.056s0.089 0.035 0.143 0.052c0.091 0.027 0.171 0.058 0.239 0.092s0.127 0.073 0.174 0.116c0.047 0.043 0.082 0.091 0.105 0.145s0.035 0.116 0.035 0.184c0 0.005 0 0.010 0 0.016 0 0.133-0.065 0.25-0.164 0.323l-0.001 0.001c-0.053 0.039-0.117 0.069-0.191 0.090s-0.156 0.031-0.248 0.031c-0.082 0-0.164-0.011-0.244-0.032-0.083-0.023-0.156-0.057-0.221-0.101l0.003 0.002c-0.064-0.044-0.117-0.101-0.154-0.167l-0.001-0.002c-0.039-0.069-0.058-0.15-0.058-0.244h0.344c0 0.052 0.008 0.096 0.024 0.132s0.038 0.064 0.067 0.086l0 0c0.030 0.022 0.065 0.039 0.103 0.048l0.002 0c0.041 0.010 0.086 0.015 0.135 0.015 0.004 0 0.008 0 0.012 0 0.048 0 0.094-0.009 0.136-0.026l-0.002 0.001c0.068-0.027 0.114-0.092 0.114-0.168 0-0.001 0-0.002-0-0.003v0z"></path>
</symbol>
<symbol id="icon-client5" viewBox="0 0 22 16">
<path  d="M1.667 13.347c0.085 0.095 0.131 0.214 0.129 0.337 0.004 0.080-0.011 0.159-0.046 0.233s-0.087 0.139-0.153 0.192c-0.145 0.098-0.325 0.157-0.518 0.157-0.021 0-0.043-0.001-0.064-0.002l0.003 0h-1.017v-2.133h0.997c0.018-0.001 0.038-0.002 0.059-0.002 0.183 0 0.354 0.053 0.497 0.146l-0.004-0.002c0.064 0.049 0.115 0.11 0.149 0.179s0.049 0.145 0.045 0.22c0.006 0.118-0.035 0.233-0.116 0.326-0.078 0.084-0.182 0.144-0.299 0.166l-0.003 0.001c0.135 0.022 0.257 0.087 0.344 0.182zM0.473 13.025h0.426c0.097 0.007 0.193-0.018 0.271-0.071 0.031-0.025 0.056-0.057 0.072-0.093l0.001-0.002c0.012-0.027 0.019-0.059 0.019-0.093 0-0.008-0-0.015-0.001-0.022l0 0.001c0-0.005 0.001-0.012 0.001-0.018 0-0.034-0.007-0.067-0.020-0.097l0.001 0.002c-0.017-0.038-0.041-0.070-0.071-0.095l-0-0c-0.069-0.046-0.153-0.073-0.244-0.073-0.012 0-0.024 0-0.036 0.001l0.002-0h-0.419v0.559zM1.212 13.843c0.033-0.026 0.060-0.059 0.078-0.096l0.001-0.002c0.014-0.030 0.023-0.065 0.023-0.102 0-0.006-0-0.012-0.001-0.017l0 0.001c0-0.005 0-0.010 0-0.015 0-0.038-0.009-0.075-0.024-0.107l0.001 0.001c-0.019-0.040-0.046-0.072-0.079-0.098l-0.001-0c-0.073-0.049-0.164-0.078-0.261-0.078-0.010 0-0.020 0-0.029 0.001l0.001-0h-0.447v0.587h0.453c0.102 0.005 0.203-0.021 0.286-0.074zM3.704 14.264l-0.554-0.834h-0.209v0.833h-0.477v-2.133h0.903c0.019-0.001 0.042-0.002 0.065-0.002 0.212 0 0.408 0.069 0.566 0.185l-0.003-0.002c0.126 0.116 0.202 0.269 0.215 0.43s-0.040 0.322-0.147 0.452c-0.111 0.115-0.263 0.192-0.431 0.217l0.59 0.852h-0.518zM2.941 13.14h0.39c0.271 0 0.406-0.108 0.406-0.323 0-0.005 0.001-0.011 0.001-0.017 0-0.040-0.008-0.079-0.023-0.114l0.001 0.002c-0.018-0.043-0.045-0.080-0.077-0.11l-0-0c-0.074-0.055-0.168-0.088-0.269-0.088-0.013 0-0.027 0.001-0.040 0.002l0.002-0h-0.395l0.005 0.649zM6.311 13.835h-0.951l-0.168 0.429h-0.5l0.873-2.109h0.541l0.869 2.109h-0.5l-0.164-0.429zM6.183 13.512l-0.347-0.901-0.347 0.9h0.695zM9.573 14.264h-0.473l-1.062-1.45v1.45h-0.472v-2.133h0.472l1.061 1.459v-1.459h0.473v2.133zM12.275 13.753c-0.103 0.164-0.249 0.294-0.422 0.374l-0.006 0.003c-0.206 0.094-0.435 0.14-0.665 0.134h-0.843v-2.133h0.843c0.012-0 0.025-0.001 0.039-0.001 0.227 0 0.442 0.048 0.636 0.136l-0.010-0.004c0.181 0.082 0.33 0.212 0.428 0.372 0.097 0.174 0.148 0.365 0.148 0.56-0.001 0.206-0.055 0.398-0.151 0.565l0.003-0.006zM11.733 13.703c0.128-0.131 0.208-0.311 0.209-0.509v-0c-0.002-0.198-0.081-0.377-0.21-0.509l0 0c-0.147-0.114-0.335-0.183-0.538-0.183-0.019 0-0.038 0.001-0.057 0.002l0.003-0h-0.329v1.381h0.329c0.016 0.001 0.036 0.002 0.055 0.002 0.203 0 0.391-0.069 0.54-0.184l-0.002 0.002zM6.607 0.267s6.11 2.077 5.981 5.082v5.083s-6.106-2.078-5.979-5.083l-0.002-5.082zM18.031 9.242c1.154-0.715 2.489-1.158 3.882-1.288v-1.591c-1.606 0.557-2.967 1.567-3.882 2.879z"></path>
<path  d="M17.338 9.721c0.944-1.712 2.582-3.033 4.575-3.692v-4.585s-8.702 2.958-8.518 7.238v7.237s0.388-0.132 0.998-0.381c0-0.231 0-0.465 0.028-0.699 0.18-1.987 1.229-3.828 2.917-5.118z"></path>
<path  d="M16.51 12.409c0.051-0.547 0.159-1.050 0.319-1.53l-0.014 0.048c-1.051 1.114-1.687 2.497-1.82 3.954-0.013 0.137-0.019 0.275-0.023 0.417 0.729-0.313 1.279-0.579 1.818-0.863l-0.144 0.069c-0.104-0.444-0.164-0.955-0.164-1.479 0-0.217 0.010-0.432 0.030-0.644l-0.002 0.027zM16.856 12.435c-0.017 0.176-0.027 0.38-0.027 0.586 0 0.464 0.049 0.917 0.142 1.353l-0.008-0.042c2.377-1.281 5.049-3.259 4.946-5.651v-0.209c-1.698 0.171-3.288 0.84-4.523 1.903-0.273 0.602-0.461 1.3-0.528 2.033l-0.002 0.026z"></path>
</symbol>
<symbol id="icon-client6" viewBox="0 0 33 16">
<path  d="M16.9 7.624c-0.136-0.175-0.218-0.398-0.218-0.641 0-0.024 0.001-0.047 0.002-0.071l-0 0.003v-1.027c0-0.315 0.071-0.554 0.214-0.718s0.388-0.245 0.736-0.245c0.327 0 0.559 0.070 0.696 0.209 0.149 0.178 0.222 0.395 0.206 0.614v0.242h-0.585v-0.245c0.002-0.080-0.004-0.16-0.017-0.239-0.010-0.058-0.040-0.107-0.083-0.142l-0-0c-0.052-0.035-0.117-0.056-0.186-0.056-0.009 0-0.018 0-0.027 0.001l0.001-0c-0.008-0.001-0.017-0.001-0.026-0.001-0.073 0-0.142 0.022-0.199 0.060l0.001-0.001c-0.048 0.039-0.083 0.093-0.096 0.155l-0 0.002c-0.015 0.070-0.023 0.151-0.023 0.234 0 0.007 0 0.014 0 0.021l-0-0.001v1.246c-0.001 0.014-0.002 0.030-0.002 0.047 0 0.111 0.028 0.215 0.078 0.306l-0.002-0.003c0.030 0.038 0.070 0.067 0.115 0.084l0.002 0.001c0.047 0.018 0.1 0.025 0.151 0.020 0.075 0.005 0.149-0.015 0.207-0.057 0.045-0.038 0.077-0.090 0.087-0.15l0-0.002c0.014-0.082 0.020-0.166 0.018-0.25v-0.253h0.585v0.231c0.001 0.018 0.002 0.039 0.002 0.060 0 0.222-0.077 0.426-0.206 0.587l0.001-0.002c-0.134 0.153-0.363 0.229-0.699 0.229s-0.591-0.081-0.735-0.251zM19.334 7.635c-0.148-0.16-0.222-0.393-0.222-0.701v-1.080c0-0.305 0.074-0.536 0.222-0.693s0.395-0.235 0.741-0.234c0.344 0 0.59 0.078 0.737 0.234 0.148 0.157 0.223 0.388 0.223 0.693v1.080c0 0.305-0.075 0.539-0.225 0.7s-0.395 0.241-0.735 0.241-0.592-0.081-0.741-0.24zM20.347 7.376c0.053-0.1 0.077-0.21 0.070-0.32v-1.323c0.001-0.010 0.001-0.023 0.001-0.035 0-0.102-0.026-0.198-0.072-0.281l0.002 0.003c-0.031-0.038-0.071-0.068-0.117-0.086l-0.002-0.001c-0.034-0.013-0.073-0.021-0.114-0.021-0.014 0-0.028 0.001-0.042 0.003l0.002-0c-0.012-0.001-0.025-0.002-0.039-0.002-0.042 0-0.081 0.008-0.118 0.022l0.002-0.001c-0.048 0.018-0.089 0.048-0.12 0.085l-0 0c-0.053 0.098-0.078 0.206-0.070 0.313v1.329c-0.007 0.11 0.017 0.219 0.070 0.32 0.034 0.033 0.076 0.060 0.123 0.079 0.045 0.018 0.096 0.028 0.15 0.028s0.106-0.010 0.153-0.029l-0.003 0.001c0.047-0.019 0.089-0.046 0.123-0.079v-0.006zM21.738 4.959h0.629l0.474 1.993 0.484-1.993h0.613l0.062 2.876h-0.453l-0.048-1.999-0.467 1.999h-0.363l-0.484-2.006-0.045 2.006h-0.458l0.057-2.876zM24.705 4.959h0.981c0.565 0 0.847 0.272 0.847 0.817 0 0.522-0.298 0.782-0.892 0.782h-0.334v1.279h-0.605l0.004-2.877zM25.543 6.188c0.060 0.006 0.121 0.002 0.178-0.014s0.11-0.042 0.155-0.077c0.056-0.076 0.090-0.172 0.090-0.275 0-0.018-0.001-0.035-0.003-0.052l0 0.002c0-0.010 0.001-0.022 0.001-0.033 0-0.081-0.011-0.16-0.031-0.234l0.001 0.006c-0.010-0.031-0.025-0.057-0.045-0.079l0 0c-0.021-0.024-0.047-0.043-0.075-0.057l-0.001-0.001c-0.070-0.030-0.152-0.047-0.237-0.047-0.012 0-0.023 0-0.034 0.001l0.002-0h-0.235v0.86h0.235zM27.406 4.959h0.65l0.667 2.876h-0.564l-0.132-0.663h-0.58l-0.136 0.663h-0.572l0.667-2.877zM27.962 6.839l-0.226-1.207-0.226 1.207h0.453zM29.262 4.959h0.424l0.811 1.641v-1.641h0.503v2.876h-0.403l-0.816-1.713v1.713h-0.519l0.001-2.876zM32.175 6.738l-0.674-1.776h0.568l0.411 1.141 0.386-1.141h0.556l-0.666 1.776v1.097h-0.581v-1.097zM17.834 9.093v0.15h-0.494v1.169h-0.207v-1.169h-0.497v-0.15h1.197zM19.382 10.412h-0.16c-0.001 0-0.003 0-0.004 0-0.015 0-0.029-0.005-0.041-0.013l0 0c-0.012-0.007-0.021-0.018-0.026-0.030l-0-0-0.143-0.313h-0.685l-0.143 0.313c-0.004 0.014-0.012 0.026-0.021 0.036v0c-0.012 0.008-0.026 0.013-0.041 0.013-0.001 0-0.003-0-0.004-0l0 0h-0.16l0.606-1.319h0.21l0.613 1.314zM18.38 9.922h0.571l-0.242-0.537c-0.016-0.034-0.031-0.075-0.043-0.118l-0.002-0.007c-0.009 0.025-0.016 0.049-0.023 0.070l-0.022 0.055-0.24 0.536zM20.426 10.283c0.038 0.002 0.076 0.002 0.114 0 0.033-0.003 0.065-0.008 0.097-0.016 0.035-0.007 0.064-0.016 0.092-0.026l-0.005 0.002c0.027-0.009 0.053-0.021 0.081-0.032v-0.297h-0.242c-0.001 0-0.002 0-0.003 0-0.005 0-0.010-0.001-0.015-0.002l0 0c-0.006-0.002-0.011-0.005-0.015-0.008l0 0c-0.004-0.003-0.007-0.006-0.009-0.011l-0-0c-0.002-0.004-0.003-0.008-0.003-0.012 0-0.001 0-0.001 0-0.002v0-0.101h0.47v0.506c-0.073 0.046-0.158 0.083-0.249 0.106l-0.006 0.001c-0.050 0.012-0.1 0.021-0.151 0.027-0.053 0.005-0.114 0.009-0.177 0.009-0 0-0 0-0 0v0c-0.002 0-0.005 0-0.007 0-0.107 0-0.209-0.018-0.305-0.051l0.006 0.002c-0.093-0.032-0.174-0.079-0.243-0.138l0.001 0.001c-0.065-0.057-0.118-0.127-0.155-0.205l-0.002-0.004c-0.035-0.078-0.056-0.169-0.056-0.265 0-0.003 0-0.006 0-0.009v0c-0-0.002-0-0.005-0-0.008 0-0.097 0.020-0.188 0.056-0.272l-0.002 0.004c0.035-0.078 0.088-0.149 0.156-0.209s0.151-0.106 0.242-0.137c0.104-0.034 0.214-0.050 0.325-0.049 0.057 0 0.113 0.004 0.168 0.011 0.049 0.007 0.097 0.018 0.144 0.033 0.043 0.014 0.083 0.031 0.121 0.052s0.073 0.044 0.106 0.069l-0.058 0.082c-0.005 0.008-0.012 0.014-0.020 0.018l-0 0c-0.008 0.004-0.017 0.007-0.027 0.007h-0c-0.014-0-0.027-0.004-0.038-0.011l0 0c-0.024-0.012-0.044-0.022-0.062-0.033l0.003 0.002c-0.023-0.013-0.050-0.025-0.078-0.034l-0.004-0.001c-0.031-0.011-0.068-0.021-0.107-0.028l-0.005-0.001c-0.044-0.007-0.094-0.011-0.146-0.011-0.003 0-0.006 0-0.009 0h0c-0.002-0-0.005-0-0.007-0-0.081 0-0.159 0.013-0.231 0.038l0.005-0.002c-0.069 0.024-0.128 0.059-0.178 0.105l0-0c-0.050 0.048-0.089 0.103-0.113 0.164-0.026 0.065-0.041 0.141-0.041 0.22s0.015 0.155 0.042 0.224l-0.001-0.004c0.027 0.062 0.068 0.118 0.121 0.166 0.050 0.045 0.11 0.081 0.177 0.105 0.077 0.023 0.159 0.032 0.24 0.026zM22.355 10.262h0.661v0.15h-0.863v-1.319h0.207l-0.005 1.169zM23.704 10.412h-0.207v-1.319h0.207v1.319zM24.474 9.099c0.013 0.006 0.023 0.014 0.032 0.024l0 0 0.885 0.994c-0.001-0.007-0.001-0.015-0.001-0.023s0-0.016 0.001-0.025l-0 0.001v-0.983h0.18v1.325h-0.104c-0.002 0-0.004 0-0.007 0-0.014 0-0.027-0.003-0.039-0.008l0.001 0c-0.013-0.007-0.023-0.015-0.033-0.025l-0-0-0.884-0.994v1.026h-0.173v-1.319h0.108c0.012 0 0.023 0.002 0.034 0.006zM27.095 9.093v0.145h-0.734v0.436h0.594v0.14h-0.594v0.45h0.734v0.145h-0.947v-1.316h0.947zM5.403 0.945l9.192 2.252v7.892l-9.192-2.251v-7.893zM4.813 0.273v8.949l10.37 2.542v-8.948l-10.37-2.542z"></path>
<path  d="M10.371 15.917l-10.371-2.544v-8.948l10.371 2.542v8.949z"></path>
<path  d="M4.985 0.844l9.072 2.224-3.858 3.33-9.073-2.225 3.859-3.329zM4.813 0.273l-4.813 4.153 10.371 2.543 4.812-4.153-10.37-2.543zM10.955 15.413l4.228-3.649-4.229-1.037v4.687z"></path>
</symbol>
<symbol id="icon-clock" viewBox="0 0 16 16">
<path fill="#2e2f42" style="fill: var(--color2, #2e2f42)" d="M15.648 7.651c-0.001-4.226-3.428-7.651-7.654-7.651s-7.651 3.428-7.651 7.654c0.001 3.394 2.211 6.272 5.271 7.273l0.054 0.015c0.030 0.009 0.062 0.014 0.093 0.014 0.061 0 0.12-0.016 0.171-0.047 0.067-0.040 0.118-0.104 0.142-0.178l1.933-6.125c0.527-0.002 0.953-0.429 0.953-0.957 0-0.528-0.428-0.957-0.957-0.957-0.152 0-0.295 0.035-0.422 0.098l0.006-0.003-2.553-2.553c-0.058-0.058-0.137-0.093-0.225-0.093-0.176 0-0.319 0.143-0.319 0.319 0 0.088 0.036 0.168 0.093 0.226v0l2.552 2.554c-0.060 0.12-0.096 0.263-0.096 0.413 0 0.301 0.142 0.568 0.362 0.74l0.002 0.002-1.841 5.837c-3.639-1.341-5.502-5.377-4.162-9.016s5.377-5.502 9.016-4.162c3.639 1.341 5.502 5.377 4.162 9.016-0.672 1.791-2.002 3.203-3.687 3.969l-0.044 0.018-0.199-0.937c-0.032-0.145-0.159-0.253-0.312-0.253-0.082 0-0.156 0.031-0.212 0.081l0-0-1.918 1.713c-0.066 0.059-0.107 0.144-0.107 0.238 0 0.142 0.092 0.262 0.22 0.303l0.002 0.001 2.449 0.782c0.029 0.010 0.063 0.015 0.098 0.015 0.176 0 0.319-0.143 0.319-0.319 0-0.024-0.003-0.047-0.007-0.069l0 0.002-0.196-0.919c2.764-1.187 4.664-3.886 4.664-7.028 0-0.006 0-0.011-0-0.017v0.001zM7.996 7.332c0.176 0 0.319 0.143 0.319 0.319s-0.143 0.319-0.319 0.319v0c-0.176 0-0.319-0.143-0.319-0.319s0.143-0.319 0.319-0.319v0zM9.046 14.764l1.092-0.974 0.302 1.42-1.393-0.446z"></path>
<path fill="#4d5ae5" style="fill: var(--color1, #4d5ae5)" d="M7.677 1.593v0.637c0 0.176 0.143 0.319 0.319 0.319s0.319-0.143 0.319-0.319v-0.637c-0.007-0.171-0.147-0.306-0.319-0.306s-0.312 0.136-0.319 0.306l-0 0.001zM1.938 7.332c-0.176 0-0.319 0.143-0.319 0.319s0.143 0.319 0.319 0.319h0.637c0.176 0 0.319-0.143 0.319-0.319s-0.143-0.319-0.319-0.319h-0.637zM14.054 7.97c0.176 0 0.319-0.143 0.319-0.319s-0.143-0.319-0.319-0.319h-0.637c-0.171 0.007-0.306 0.147-0.306 0.319s0.136 0.312 0.306 0.319l0.001 0h0.637z"></path>
</symbol>
<symbol id="icon-diagram" viewBox="0 0 16 16">
<path fill="#4d5ae5" style="fill: var(--color1, #4d5ae5)" d="M7.463 7.482h0.533v2.399h-0.533v-2.399zM9.595 8.549h0.533v1.332h-0.533v-1.332zM5.33 9.348h0.533v0.533h-0.533v-0.533zM3.731 9.082h0.533v0.8h-0.533v-0.8z"></path>
<path fill="#2e2f42" style="fill: var(--color2, #2e2f42)" d="M0.799 14.146h12.793c0 0 0 0 0 0 0.442 0 0.8-0.358 0.8-0.8v0-1.066c0-0.442-0.358-0.8-0.8-0.8-0 0-0 0-0 0h-0.266v-6.647l1.514-1.434c0.104 0.052 0.226 0.083 0.355 0.083 0.444 0 0.804-0.36 0.804-0.804s-0.36-0.804-0.804-0.804c-0.444 0-0.804 0.36-0.804 0.804 0 0.123 0.028 0.24 0.077 0.345l-0.002-0.005-1.141 1.081v-0.615c0-0.442-0.358-0.8-0.8-0.8v0h-10.661c-0 0-0 0-0 0-0.442 0-0.799 0.358-0.799 0.8 0 0 0 0 0 0v-0 7.995h-0.266c-0.442 0-0.799 0.358-0.799 0.8 0 0 0 0 0 0v-0 1.066c0 0.442 0.358 0.8 0.799 0.8v0zM15.192 2.418c0.147 0 0.267 0.119 0.267 0.267s-0.119 0.267-0.267 0.267v0c-0.147 0-0.267-0.119-0.267-0.267s0.119-0.267 0.267-0.267v0zM1.599 3.485c0-0.147 0.119-0.267 0.266-0.267h10.661c0.147 0 0.267 0.119 0.267 0.267v1.119l-0.533 0.506v-1.093c0-0.147-0.119-0.267-0.267-0.267h-9.595c-0.147 0-0.267 0.119-0.267 0.267v6.663c0 0.148 0.119 0.267 0.267 0.267h9.595c0.147 0 0.267-0.12 0.267-0.267v-4.837l0.533-0.505v6.141h-11.194v-7.995zM3.998 6.949c-0.001 0-0.001 0-0.002 0-0.442 0-0.8 0.358-0.8 0.8s0.358 0.799 0.8 0.799c0.216 0 0.412-0.086 0.556-0.225l-0 0 0.926 0.465c0.107 0.054 0.238 0.028 0.318-0.062l1.969-2.216 1.936 1.451c0.104 0.078 0.249 0.070 0.343-0.020l1.683-1.594v4.065h-9.062v-6.13h9.062v1.33l-1.886 1.786-1.952-1.464c-0.044-0.033-0.099-0.053-0.16-0.053-0.079 0-0.15 0.034-0.199 0.089l-0 0-1.997 2.246-0.747-0.373c0.005-0.032 0.009-0.064 0.010-0.097-0-0.442-0.358-0.799-0.799-0.8h-0zM4.264 7.749c0 0.147-0.119 0.267-0.267 0.267s-0.267-0.119-0.267-0.267v0c0-0.147 0.119-0.267 0.267-0.267s0.267 0.119 0.267 0.267v0zM5.864 12.013h2.665v0.267c0 0.147-0.119 0.267-0.267 0.267h-2.132c-0.147 0-0.266-0.119-0.266-0.267v0-0.267zM0.533 12.28c0-0.147 0.12-0.267 0.267-0.267h4.531v0.267c0 0 0 0 0 0 0 0.442 0.358 0.8 0.8 0.8h2.132c0.442 0 0.8-0.358 0.8-0.8 0-0 0-0 0-0v0-0.267h4.53c0.148 0 0.267 0.119 0.267 0.267v1.066c0 0.147-0.12 0.267-0.267 0.267h-12.793c-0.147 0-0.266-0.119-0.266-0.267v0-1.066z"></path>
</symbol>
<symbol id="icon-facebook" viewBox="0 0 16 16">
<path d="M10.665 2.657h1.46v-2.544c-0.619-0.072-1.336-0.113-2.063-0.113-0.023 0-0.046 0-0.069 0l0.004-0c-2.106 0-3.547 1.325-3.547 3.76v2.24h-2.325v2.844h2.324v7.156h2.849v-7.155h2.23l0.354-2.845h-2.585v-1.96c0.001-0.822 0.222-1.384 1.368-1.384z"></path>
</symbol>
<symbol id="icon-instagram" viewBox="0 0 16 16">
<path d="M15.984 4.704c-0.037-0.85-0.175-1.435-0.372-1.941-0.212-0.556-0.527-1.030-0.924-1.419l-0.001-0.001c-0.39-0.396-0.862-0.709-1.389-0.912l-0.027-0.009c-0.51-0.197-1.090-0.335-1.94-0.372-0.858-0.040-1.131-0.050-3.301-0.050-2.173 0-2.445 0.010-3.298 0.047-0.85 0.037-1.434 0.175-1.94 0.372-0.556 0.212-1.030 0.527-1.419 0.924l-0.001 0.001c-0.396 0.39-0.709 0.862-0.913 1.389l-0.009 0.027c-0.197 0.51-0.334 1.090-0.372 1.94-0.040 0.857-0.050 1.13-0.050 3.301 0 2.173 0.010 2.445 0.047 3.298 0.037 0.85 0.175 1.435 0.372 1.941 0.203 0.538 0.519 1.019 0.925 1.419 0.4 0.406 0.885 0.722 1.416 0.922 0.51 0.197 1.090 0.335 1.941 0.372 0.853 0.038 1.125 0.047 3.298 0.047s2.444-0.010 3.297-0.047c0.85-0.037 1.435-0.175 1.941-0.372 1.078-0.425 1.916-1.263 2.331-2.313l0.010-0.028c0.197-0.51 0.335-1.090 0.372-1.941 0.038-0.853 0.047-1.125 0.047-3.298s-0.003-2.444-0.040-3.297zM14.544 11.236c-0.035 0.782-0.166 1.204-0.276 1.485-0.275 0.7-0.819 1.244-1.501 1.514l-0.018 0.006c-0.281 0.109-0.706 0.24-1.484 0.274-0.844 0.038-1.097 0.047-3.232 0.047s-2.391-0.010-3.232-0.047c-0.782-0.034-1.204-0.165-1.485-0.275-0.36-0.135-0.668-0.338-0.918-0.596l-0.001-0.001c-0.258-0.252-0.462-0.559-0.591-0.902l-0.006-0.017c-0.11-0.281-0.24-0.706-0.275-1.484-0.037-0.844-0.047-1.098-0.047-3.232s0.010-2.391 0.047-3.232c0.035-0.782 0.166-1.204 0.275-1.485 0.128-0.347 0.332-0.662 0.6-0.919 0.26-0.266 0.572-0.469 0.92-0.597 0.28-0.11 0.706-0.24 1.484-0.275 0.844-0.037 1.097-0.047 3.232-0.047 2.138 0 2.39 0.010 3.232 0.047 0.781 0.035 1.203 0.166 1.484 0.275 0.347 0.128 0.663 0.331 0.92 0.597 0.265 0.26 0.468 0.572 0.596 0.92 0.11 0.28 0.241 0.705 0.275 1.484 0.038 0.844 0.047 1.097 0.047 3.232s-0.009 2.385-0.046 3.228z"></path>
<path d="M8.030 3.891c-2.231 0.051-4.020 1.871-4.020 4.11s1.789 4.059 4.016 4.11l0.005 0c2.231-0.051 4.020-1.871 4.020-4.11s-1.789-4.059-4.016-4.11l-0.005-0zM8.030 10.668c-1.473 0-2.667-1.194-2.667-2.667s1.194-2.667 2.667-2.667v0c1.473 0 2.667 1.194 2.667 2.667s-1.194 2.667-2.667 2.667v0zM13.262 3.729c0 0.53-0.43 0.96-0.96 0.96s-0.96-0.43-0.96-0.96v0c0-0.53 0.43-0.96 0.96-0.96s0.96 0.43 0.96 0.96v0z"></path>
</symbol>
<symbol id="icon-linkedin" viewBox="0 0 16 16">
<path d="M15.996 16h0.004v-5.87c0-2.87-0.618-5.082-3.974-5.082-1.613 0-2.696 0.886-3.138 1.725h-0.047v-1.456h-3.181v10.683h3.314v-5.29c0-1.392 0.264-2.738 1.988-2.738 1.7 0 1.725 1.589 1.725 2.828v5.2h3.31zM0.264 5.318h3.317v10.682h-3.317v-10.682zM1.921 0c-1.060 0-1.92 0.86-1.92 1.92s0.86 1.94 1.92 1.94c1.061 0 1.922-0.88 1.922-1.94s-0.863-1.92-1.923-1.92z"></path>
</symbol>
<symbol id="icon-strategy" viewBox="0 0 15 16">
<path fill="#2e2f42" style="fill: var(--color2, #2e2f42)" d="M14.886 11.049l-4.222-4.253 0.469-2.308c0.121 0.047 0.249 0.072 0.379 0.072h0.003c0.004 0 0.008 0 0.013 0 0.596 0 1.079-0.483 1.079-1.079s-0.483-1.079-1.079-1.079c-0.596 0-1.079 0.483-1.079 1.079 0 0.13 0.023 0.254 0.065 0.369l-0.002-0.007-2.48 0.303-4.045-4.066c-0.048-0.049-0.114-0.079-0.188-0.080h-0c-0.070 0-0.137 0.028-0.187 0.077l-0.756 0.752c-0.048 0.048-0.078 0.115-0.078 0.189s0.030 0.14 0.078 0.189v0l0.407 0.412c-0.571 1.031-0.908 2.261-0.908 3.569 0 2.053 0.828 3.912 2.168 5.263l-0-0c0.021 0.020 0.046 0.037 0.073 0.049-0.016 0.082-0.025 0.176-0.026 0.273v3.094h-3.2c-0.736 0.001-1.333 0.597-1.334 1.333v0.533c0 0.148 0.12 0.267 0.267 0.267h12.267c0.147 0 0.267-0.12 0.267-0.267v-0.533c-0.001-0.736-0.597-1.332-1.333-1.333h-3.2v-1.371c0.501 0.105 1.012 0.159 1.524 0.16 1.29-0.001 2.502-0.332 3.559-0.911l-0.039 0.019 0.409 0.412c0.050 0.050 0.117 0.079 0.188 0.080 0.070-0.001 0.137-0.028 0.187-0.078l0.756-0.752c0.048-0.048 0.078-0.115 0.078-0.188s-0.030-0.14-0.078-0.188v0zM11.14 3.116c0.096-0.096 0.229-0.155 0.376-0.155 0.294 0 0.533 0.239 0.533 0.533s-0.239 0.533-0.533 0.533c-0 0-0 0-0 0h-0.002c-0.293-0.001-0.531-0.24-0.531-0.533 0-0.148 0.060-0.282 0.157-0.378l0-0h-0.001zM10.512 4.869l-0.299 1.473-0.588-0.591 0.887-0.882zM10.209 4.418l-0.96 0.954-0.742-0.747 1.703-0.207zM11.502 14.4c0.442 0 0.8 0.358 0.8 0.8v0 0.267h-11.733v-0.267c0-0.442 0.358-0.8 0.8-0.8h10.133zM7.769 13.333v0.534h-2.667v-0.534h2.667zM5.102 12.8v-2.027c0-0.647 0.598-1.173 1.333-1.173s1.333 0.527 1.333 1.173v2.027h-2.667zM8.302 11.952v-1.179c0-0.941-0.838-1.707-1.867-1.707-0.009-0-0.019-0-0.029-0-0.676 0-1.27 0.353-1.607 0.885l-0.005 0.008c-1.18-1.241-1.906-2.923-1.906-4.775 0-1.157 0.283-2.248 0.785-3.207l-0.018 0.038 9.301 9.354c-0.911 0.473-1.99 0.751-3.133 0.751-0.539 0-1.064-0.062-1.568-0.179l0.047 0.009zM13.947 11.61l-10.528-10.59 0.377-0.376 3.967 3.99c0.002 0 0.003 0.003 0.005 0.005l6.557 6.596-0.379 0.376z"></path>
<path fill="#4d5ae5" style="fill: var(--color1, #4d5ae5)" d="M6.438 10.133h-0.003c-0 0-0.001 0-0.001 0-0.442 0-0.8 0.358-0.8 0.8s0.357 0.799 0.799 0.8h0.003c0 0 0.001 0 0.001 0 0.442 0 0.8-0.358 0.8-0.8s-0.357-0.799-0.799-0.8h-0zM6.625 11.123c-0.048 0.048-0.115 0.077-0.188 0.077-0.147 0-0.267-0.119-0.267-0.267 0-0 0-0.001 0-0.001v0c0.001-0.146 0.119-0.264 0.265-0.265h0c0.147 0.001 0.265 0.12 0.265 0.267 0 0.074-0.030 0.141-0.079 0.189l-0 0h0.003z"></path>
</symbol>
<symbol id="icon-twitter" viewBox="0 0 16 16">
<path d="M16 3.039c-0.55 0.247-1.188 0.429-1.856 0.514l-0.034 0.004c0.68-0.408 1.191-1.039 1.436-1.79l0.007-0.023c-0.599 0.361-1.296 0.637-2.038 0.787l-0.042 0.007c-0.6-0.639-1.45-1.038-2.394-1.038-1.811 0-3.28 1.468-3.28 3.28v0c0 0.26 0.022 0.51 0.076 0.748-2.734-0.138-5.139-1.439-6.748-3.414l-0.013-0.017c-0.281 0.474-0.448 1.045-0.448 1.655 0 1.132 0.573 2.13 1.444 2.721l0.012 0.007c-0.546-0.015-1.054-0.162-1.498-0.411l0.016 0.008v0.036c0.002 1.582 1.118 2.903 2.606 3.219l0.022 0.004c-0.25 0.069-0.538 0.108-0.834 0.108-0.009 0-0.018-0-0.027-0l0.001 0c-0.015 0-0.033 0-0.052 0-0.202 0-0.398-0.021-0.588-0.060l0.019 0.003c0.436 1.312 1.637 2.248 3.061 2.285l0.004 0c-1.107 0.872-2.522 1.399-4.060 1.399-0.003 0-0.005 0-0.008 0h0c-0.269 0-0.527-0.012-0.785-0.045 1.413 0.923 3.143 1.472 5.002 1.472 0.011 0 0.021-0 0.032-0h-0.002c6.036 0 9.336-5 9.336-9.334 0-0.145-0.005-0.285-0.012-0.424 0.649-0.468 1.195-1.033 1.629-1.679l0.015-0.024z"></path>
</symbol>
<symbol id="icon-close-modal" viewBox="0 0 8 8">
<path d="M8.014 0.807l-0.807-0.807-3.2 3.2-3.2-3.2-0.807 0.807 3.2 3.2-3.2 3.2 0.807 0.807 3.2-3.2 3.2 3.2 0.807-0.807-3.2-3.2 3.2-3.2z"></path>
</symbol>
<symbol id="icon-person" viewBox="0 0 8 8">
<path d="M4.003 4.003c0.737 0 1.334-0.597 1.334-1.334s-0.597-1.334-1.334-1.334v0c-0.737 0-1.334 0.597-1.334 1.334s0.597 1.334 1.334 1.334v0zM4.003 4.67c-0.891 0-2.669 0.447-2.669 1.334v0.334c0 0.183 0.15 0.334 0.334 0.334h4.67c0.183 0 0.334-0.15 0.334-0.334v-0.334c0-0.887-1.778-1.334-2.669-1.334z"></path>
</symbol>
<symbol id="icon-phone" viewBox="0 0 6 8">
<path d="M4.912 4.623l-0.613-0.070c-0.017-0.002-0.036-0.003-0.056-0.003-0.133 0-0.253 0.054-0.34 0.141l-0.444 0.444c-0.688-0.355-1.235-0.902-1.581-1.57l-0.010-0.020 0.447-0.446c0.087-0.087 0.141-0.207 0.141-0.34 0-0.020-0.001-0.039-0.003-0.058l0 0.002-0.070-0.608c-0.029-0.242-0.233-0.427-0.48-0.427-0 0-0 0-0.001 0h-0.417c-0.273 0-0.499 0.227-0.482 0.499 0.128 2.061 1.776 3.706 3.834 3.834 0.273 0.017 0.499-0.21 0.499-0.483v-0.417c0-0.001 0-0.002 0-0.003 0-0.245-0.185-0.447-0.423-0.475l-0.002-0z"></path>
</symbol>
<symbol id="icon-email" viewBox="0 0 6 8">
<path d="M5.003 2.001h-4.001c-0.275 0-0.497 0.225-0.497 0.5l-0.003 3.001c0 0.275 0.225 0.5 0.5 0.5h4.001c0.275 0 0.5-0.225 0.5-0.5v-3.001c0-0.275-0.225-0.5-0.5-0.5zM4.903 3.064l-1.768 1.105c-0.038 0.024-0.084 0.038-0.133 0.038s-0.095-0.014-0.134-0.038l0.001 0.001-1.768-1.105c-0.063-0.038-0.104-0.105-0.104-0.183 0-0.117 0.095-0.212 0.212-0.212 0.044 0 0.084 0.013 0.118 0.036l1.675 1.047 1.675-1.048c0.033-0.022 0.074-0.035 0.117-0.035 0.117 0 0.212 0.095 0.212 0.212 0 0.077-0.041 0.145-0.103 0.182l-0.001 0.001z"></path>
</symbol>
<symbol id="icon-send" viewBox="0 0 10 8">
<path fill="#fff" style="fill: var(--color1, #fff)" d="M9.603-0.001l-9.603 4.501 3.069 0.947 4.733-3.698-3.6 4.048 0.003 0.001-0.004-0.001v2.204l1.721-1.673 2.181 0.673 1.5-7.002z"></path>
</symbol>
</defs>
</svg>
